# xmcd
#
# Track frame offsets:
#	150
#	22176
#	46924
#	62706
#	77007
#	103496
#	130430
#	150323
#	168662
#	182764
#	205210
#	227790
#	242491
#
# Disc length: 3675 seconds
#
# Revision: 1
# Processed by: cddbd v1.5.2PL0 Copyright (c) Steve Scherf et al.
# Submitted via: audiograbber 1.83.01
#
DISCID=b00e590d
DTITLE=Alaiak - Kirrin-Karran
DYEAR=1900
DGENRE=
TTITLE0=Gora Behobitarrak
TTITLE1=Euskal Herrian Euskaraz
TTITLE2=Zaldi Polita
TTITLE3=Rengaine
TTITLE4=Munduko Jabe
TTITLE5=Habanera
TTITLE6=Zaldi Zuria
TTITLE7=Ene Colombari
TTITLE8=Buruko Mina
TTITLE9=Orroitzapena
TTITLE10=Larrosa Kolorez
TTITLE11=Gora Endaia
TTITLE12=Riau Riau Riau
EXTD=
EXTT0=
EXTT1=
EXTT2=
EXTT3=
EXTT4=
EXTT5=
EXTT6=
EXTT7=
EXTT8=
EXTT9=
EXTT10=
EXTT11=
EXTT12=
PLAYORDER=
